<svg width="64" height="64" xmlns="http://www.w3.org/2000/svg">

 <g>
  <title>Layer 1</title>
  <path id="svg_4" d="m20.83333,28.25" opacity="NaN" stroke-width="5" stroke="#000" fill="#fff"/>
  <ellipse stroke="#000" stroke-width="5" ry="29.33333" rx="29.41666" id="svg_1" cy="31.66667" cx="32.16667" fill="#ff56ff"/>
  <path d="m17.5,16.08333c0,0 0.16667,0.16667 0.16667,0.16667c0,0 0,0.16667 0,0.33333c0,0 0,0 0,0.16667c0,0 0.16667,0.16667 0.16667,0.16667c0,0 0,0.16667 0,0.16667c0,0.16667 0.16667,0.33333 0.16667,0.5c0,0 0,0.16667 0,0.16667c0.16667,0.33333 0.16667,0.33333 0.16667,0.5c0,0 0,0.16667 0,0.16667c0,0.16667 0,0.16667 0,0.33333c0,0 0,0.16667 0,0.33333c0,0 0.07647,0.11557 0.16667,0.33333c0.06378,0.15398 0,0.16667 0,0.66667c0,0 0,0.16667 0,0.5c0,0.16667 0,0.33333 0,0.33333c0,0.16667 -0.06378,0.51269 0,0.66667c0.0902,0.21776 0.16667,0.16667 0.16667,0.66667c0,0 0,0.16667 0,0.16667c0,0.16667 0.16667,0.33333 0.16667,0.66667c0,0.16667 -0.06378,0.17935 0,0.33333c0.0902,0.21776 0.16667,0.33333 0.16667,0.33333c0,0.16667 0.08104,0.30396 0.16667,0.66667c0.03829,0.16221 -0.06378,0.34602 0,0.5c0.0902,0.21776 0.16667,0.16667 0.16667,0.5c0,0.16667 0.16667,0.33333 0.16667,0.66667c0,0 0.07647,0.11557 0.16667,0.33333c0.12756,0.30796 -0.06378,0.51269 0,0.66667c0.0902,0.21776 0.16667,0.33333 0.16667,0.5c0,0.16667 0.16667,0.5 0.16667,0.5c0,0.33333 0.08104,0.47062 0.16667,0.83333c0.03829,0.16221 -0.03503,0.51307 0.16667,1c0.14262,0.34431 0.24771,0.63729 0.33333,1c0.03829,0.16221 0.0391,0.52537 0.16667,0.83333c0.0902,0.21776 0.24771,0.47062 0.33333,0.83333c0.07658,0.32442 0.12837,0.67112 0.16667,0.83333c0.08562,0.36271 0.11837,0.50715 0.16667,0.66667c0.17414,0.57514 0.29504,0.67112 0.33333,0.83333c0.08562,0.36271 0.16667,0.66667 0.16667,0.66667c0,0.16666 0.16667,0.5 0.16667,0.66666c0,0.16667 0.16667,0.33334 0.16667,0.33334c0,0.16666 0.08104,0.30396 0.16667,0.66666c0.07659,0.32442 0.08104,0.30396 0.16667,0.66667c0.03829,0.16221 0,0.5 0,0.66667c0,0 0.16667,0.16666 0.16667,0.33333c0,0.16667 0.04882,0.54881 0.16667,0.66666c0.2357,0.2357 0,0.5 0.16667,0.83334c0,0 -0.07658,0.34225 0,0.66666c0.08562,0.36271 0.16667,0.66667 0.16667,0.83334c0,0.33333 0.05179,0.68004 0.16667,1.16666c0.08562,0.36271 0.16667,0.66667 0.16667,1c0,0.16667 0.16667,0.5 0.16667,0.66667c0,0.33333 0.08104,0.63729 0.16667,1c0.07658,0.32441 0,0.5 0,0.66667c0,0.5 0,0.83333 0,1.16666c0,0.16667 0,0.66667 0,0.83334c0,0 0,0 0,0.16666l0,0l0,0" id="svg_9" stroke-width="5" stroke="#000" fill="none"/>
  <path d="m19.66667,16.08333c0,0 0,0 0,0c0,-0.16667 0,-0.16667 0,-0.16667c0,0 0,-0.16667 0,-0.16667c0,0 0,-0.16667 0,-0.16667c0.16667,-0.16667 0.16667,-0.16667 0.16667,-0.16667c0,-0.16667 0.16667,-0.16667 0.16667,-0.16667c0,-0.16667 0,-0.16667 0.16667,-0.16667c0,0 0,0 0,-0.16667c0,0 0.16667,0 0.33333,-0.16667c0,0 0,0 0.16667,-0.16667c0,0 0.16667,0 0.16667,0c0,-0.16667 0.17935,-0.10289 0.33333,-0.16667c0.21776,-0.0902 0.34602,-0.10289 0.5,-0.16667c0.21776,-0.0902 0.33333,-0.16667 0.33333,-0.16667c0.16667,0 0.5,-0.16667 0.83333,-0.16667c0,0 0.28224,-0.07647 0.5,-0.16667c0.15398,-0.06378 0.33333,0 0.5,0c0,0 0.16667,0 0.16667,0c0.16667,-0.16667 0.33333,-0.16667 0.5,-0.16667c0.16667,0 0.33333,0 0.5,0c0,0 0.28224,-0.07647 0.5,-0.16667c0.30796,-0.12756 0.5,0 0.83333,0c0.16667,0 0.30396,-0.08104 0.66667,-0.16667c0.32442,-0.07658 0.34225,0.07658 0.66667,0c0.36271,-0.08562 0.5,-0.16667 0.66667,-0.16667c0.33333,0 0.5,0 0.83333,0c0.33333,0 0.66667,0 1,0c0.16667,0 0.66667,0 0.83333,0c0.5,0 0.67558,-0.07658 1,0c0.36271,0.08562 0.63729,0.24771 1,0.33333c0.32442,0.07658 0.67936,0.10288 0.83334,0.16667c0.21776,0.0902 0.51269,0.26956 0.66666,0.33333c0.21776,0.0902 0.51269,0.26955 0.66667,0.33333c0.21776,0.0902 0.33333,0.33333 0.5,0.5c0,0 0.16667,0.16667 0.33333,0.33333c0,0 0.07647,-0.05109 0.16667,0.16667c0.06378,0.15398 0.07647,0.11557 0.16667,0.33333c0.06378,0.15398 0,0.33333 0,0.5c0,0.16667 0.16666,0.33333 0.16666,0.5c0,0.16667 0,0.33333 0,0.5c0,0.16667 0,0.16667 0,0.33333c0,0.16667 0,0.33333 0,0.5c0,0 0,0.16667 0,0.33333c0,0.16667 0,0.16667 0,0.33333c0,0.16667 -0.07647,0.28224 -0.16666,0.5c-0.06378,0.15398 0.06378,0.34602 0,0.5c-0.0902,0.21776 -0.10289,0.34602 -0.16667,0.5c-0.0902,0.21776 -0.29504,0.33779 -0.33333,0.5c-0.08562,0.36271 -0.28209,0.531 -0.5,0.83333c-0.13782,0.19121 -0.33334,0.5 -0.5,0.66667c-0.16667,0.16667 -0.24314,0.28224 -0.33334,0.5c-0.06378,0.15398 -0.16666,0.33333 -0.16666,0.33333c0,0.16667 -0.10289,0.17936 -0.16667,0.33333c-0.0902,0.21776 -0.17936,0.26955 -0.33333,0.33333c-0.21776,0.0902 -0.4098,0.28224 -0.5,0.5c-0.06378,0.15398 -0.26955,0.34602 -0.33334,0.5c-0.0902,0.21776 -0.28224,0.4098 -0.5,0.5c-0.15398,0.06378 -0.35871,0.20577 -0.66667,0.33333c-0.65328,0.2706 -0.68005,0.7294 -1.33333,1c-0.15398,0.06378 -0.47546,0.19552 -0.66667,0.33333c-0.30233,0.21791 -0.55167,0.05625 -1,0.33333c-0.2005,0.12392 -0.33333,0.16666 -0.66667,0.33333c-0.33333,0.16667 -0.5,0.16667 -0.66667,0.16667c-0.16667,0 -0.16667,0 -0.33333,0c0,0 0,0 0,0c-0.16667,0 -0.16667,0 -0.33333,0c-0.16667,0 -0.33333,0 -0.33333,0c-0.16667,0 -0.16667,0 -0.33333,0c-0.16667,0 -0.33333,-0.16667 -0.33333,-0.16667c-0.16667,0 -0.16667,0 -0.33333,0c0,0 0,-0.16667 -0.16667,-0.16667c-0.33333,0 -0.52537,0.12756 -0.83333,0c-0.21776,-0.0902 -0.5,-0.16667 -0.66667,-0.16667c-0.16667,0 -0.16667,0 -0.33333,0c0,0 0,0 -0.16667,0c0,0 0,0 -0.16667,0l0,0" id="svg_10" stroke-width="5" stroke="#000" fill="none"/>
  <path d="m36.5,25.25c0,0 0,-0.16667 0,-0.16667c0,0 0.04882,-0.04882 0.16667,-0.16667c0.11785,-0.11785 0.38215,0.11785 0.5,0c0.11785,-0.11785 0,-0.16667 0.33333,-0.16667c0,0 0.16667,0 0.16667,0c0.16667,0 0.66667,0 0.66667,0c0.16666,0 0.33333,0 0.5,0c0.16666,0 0.28224,0.07647 0.5,0.16667c0.30796,0.12756 0.47062,0.08104 0.83333,0.16667c0.1622,0.03829 0.3587,0.03911 0.66666,0.16667c0.21776,0.0902 0.5,0.33333 0.5,0.33333c0.16667,0.16667 0.34602,0.10289 0.5,0.16667c0.21776,0.0902 0.17936,0.26955 0.33334,0.33333c0.21776,0.0902 0.26955,0.17935 0.33333,0.33333c0.0902,0.21776 0.21548,0.21548 0.33333,0.33333c0.11785,0.11785 0.21548,0.04881 0.33334,0.16667c0.11785,0.11785 0,0.33333 0.16666,0.5c0,0 0.10289,0.17936 0.16667,0.33333c0.0902,0.21776 0.21548,0.21548 0.33333,0.33333c0.11785,0.11785 0,0.33333 0.16667,0.5c0,0 0.16667,0.16667 0.16667,0.33333c0,0.16667 0.16666,0.33333 0.16666,0.33333c0,0.16667 0.07647,0.28224 0.16667,0.5c0.06378,0.15398 0.07647,0.28224 0.16667,0.5c0.12756,0.30796 -0.02036,0.50125 0,0.66667c0.08396,0.68204 0.33333,0.83333 0.33333,1.16667c0,0.33333 0.20403,0.98381 0.33333,1.33333c0.23841,0.6445 0.24771,0.97062 0.33334,1.33333c0.07658,0.32442 0,0.5 0,0.83334c0,0.33333 0.16666,0.33333 0.16666,0.5c0,0.16666 0,0.33333 0,0.5c0,0.33333 0,0.33333 0,0.66666c0,0.16667 0,0.66667 0,0.83334c0,0.16666 0,0.33333 0,0.5c0,0.16666 0,0.16666 0,0.33333c0,0.33333 -0.12837,0.50446 -0.16666,0.66666c-0.08562,0.36271 -0.41438,0.63729 -0.5,1c-0.03829,0.16221 -0.55625,1.05167 -0.83334,1.5c-0.24783,0.401 -0.62221,0.87212 -1.5,1.83334c-0.47683,0.52214 -1.01869,0.81972 -1.5,1.5c-0.34708,0.49056 -0.96581,1.03671 -1.5,1.5c-0.62954,0.546 -1.15305,0.85202 -1.83334,1.33333c-0.49056,0.34708 -1.21801,0.81828 -1.83333,1.16667c-0.59799,0.33857 -1.34641,0.46497 -1.83333,0.66666c-0.34431,0.14262 -0.80396,0.41438 -1.16667,0.5c-0.32442,0.07658 -0.33333,0 -1,0.16667c0,0 -0.16667,0 -0.16667,0c-0.16667,0 -0.21548,0.11785 -0.33333,0c-0.11785,-0.11785 -0.16667,-0.16667 -0.33333,-0.16667c0,0 -0.16667,0 -0.33333,-0.16666c0,0 -0.13283,-0.04275 -0.33333,-0.16667c-0.44833,-0.27709 -0.66667,-0.33333 -1,-0.33333c-0.16667,0 -0.38215,-0.04882 -0.5,-0.16667c-0.11785,-0.11785 -0.17935,-0.10289 -0.33333,-0.16667c-0.21776,-0.0902 -0.34602,-0.10288 -0.5,-0.16666c-0.21776,-0.0902 -0.33333,-0.16667 -0.33333,-0.16667c-0.16667,0 -0.33333,-0.16667 -0.5,-0.16667c0,0 -0.16667,0 -0.33333,-0.16666c0,0 -0.16667,0 -0.16667,0c0,0 -0.16667,-0.16667 -0.33333,-0.16667c0,0 0,0 0,0c-0.16667,0 -0.33333,-0.16667 -0.33333,-0.16667c0,0 -0.16667,0 -0.16667,0c0,0 -0.16667,-0.16666 -0.16667,-0.16666c0,0 0,0 -0.16667,0c0,0 -0.16667,0 -0.16667,0c0,-0.16667 0,-0.16667 -0.16667,-0.16667c0,0 0,0 -0.16667,0c-0.16667,0 -0.33333,-0.16667 -0.33333,-0.16667l0,0l0,0l-0.16667,0" id="svg_11" stroke-width="5" stroke="#000" fill="none"/>
 </g>
</svg>